<?xml version="1.0" encoding="utf-8"?>
<!-- Generator: Adobe Illustrator 25.3.1, SVG Export Plug-In . SVG Version: 6.00 Build 0)  -->
<svg version="1.1" id="Ebene_1" xmlns="http://www.w3.org/2000/svg" x="0px" y="0px"
	 viewBox="0 0 820.8 288.9" style="enable-background:new 0 0 820.8 288.9;" xml:space="preserve">
<g>
	<path d="M24.2,250.2H32v38.3h-7.7v-16.4H7.8v16.4H0v-38.3h7.7v16h16.5L24.2,250.2z"/>
	<path d="M67.9,288.9c-5.2,0.1-10.2-1.9-13.9-5.5c-7.6-7.9-7.6-20.3,0-28.2c7.8-7.4,20-7.4,27.9,0c7.5,7.9,7.5,20.3,0,28.2
		C78.1,287,73.1,289,67.9,288.9z M76.4,278.4c4.3-5.3,4.3-12.9,0-18.2c-4.7-4.6-12.2-4.6-16.9,0c-4.3,5.3-4.3,12.9,0,18.2
		C64.1,282.9,71.6,282.9,76.4,278.4L76.4,278.4z"/>
	<path d="M101.6,256.1v-5.9H130v5.9h-10.4v32.4h-7.7v-32.4H101.6z"/>
	<path d="M168.3,250.1v5.9h-14.4v10h12.7v5.9h-12.7v10.6h14.4v6h-22.1v-38.4H168.3z"/>
	<path d="M186.4,250.2h7.7v32.4h12.3v5.9h-20L186.4,250.2z"/>
	<path d="M234.3,255.8c-1.4-0.1-2.7,0.4-3.8,1.2c-1,0.8-1.5,2-1.5,3.3c-0.1,1.2,0.3,2.3,1.1,3.3c0.8,0.8,1.7,1.5,2.8,1.8
		c1.3,0.4,2.5,0.8,3.8,1.1c1.4,0.3,2.8,0.7,4.2,1.2c1.3,0.4,2.6,1,3.8,1.8c1.2,0.7,2.2,1.8,2.8,3c0.8,1.5,1.1,3.2,1.1,4.8
		c0,3.1-1.4,6.1-3.8,8.2c-2.5,2.3-5.8,3.4-10,3.4c-4.2,0-7.5-1-10-3c-2.6-2-4-5-3.8-8.2h8.2c0.3,3.3,2.2,5,5.8,5
		c1.5,0.1,3-0.4,4.2-1.4c1-0.9,1.6-2.3,1.5-3.7c0-1.5-0.7-2.8-2-3.6c-1.5-0.9-3.2-1.6-4.9-2c-1.9-0.4-3.9-1-5.8-1.6
		c-1.9-0.6-3.6-1.7-4.9-3.3c-1.4-1.7-2.1-3.9-2-6.2c-0.1-3.2,1.3-6.3,3.8-8.3c2.8-2.2,6.2-3.3,9.7-3.1c4,0,7.2,0.9,9.6,2.7
		c2.4,1.8,3.7,4.6,4,8.3h-8.5c-0.1-1.3-0.7-2.6-1.7-3.5C237.1,256.2,235.7,255.7,234.3,255.8z"/>
	<path d="M283.9,288.9c-5.2,0.1-10.2-1.9-13.9-5.5c-7.6-7.9-7.6-20.3,0-28.2c7.8-7.4,20-7.4,27.8,0c7.5,7.9,7.5,20.3,0,28.2
		C294.1,287,289.1,289,283.9,288.9z M292.3,278.4c4.3-5.3,4.3-12.9,0-18.2c-4.7-4.6-12.2-4.6-16.9,0c-4.3,5.3-4.3,12.9,0,18.2
		C280.1,282.9,287.6,282.9,292.3,278.4L292.3,278.4z"/>
	<path d="M319.8,288.5v-38.3h23.7v5.9h-16v10h12.2v5.9h-12.1v16.4H319.8z"/>
	<path d="M357.6,256.1v-5.9H386v5.9h-10.4v32.4h-7.7v-32.4H357.6z"/>
	<path d="M445,250.2h8.3l-11.1,38.3h-8.8l-7.4-26.7l-7.6,26.7h-8.8l-10.9-38.3h8.2l7.3,29.6l7.7-29.6h8.7l7.3,29.3L445,250.2z"/>
	<path d="M493.5,288.5l-2.5-7.2h-14.9l-2.5,7.2h-8.2l13.5-38.4h9.2l13.5,38.4H493.5z M478.2,275.4h10.9l-5.5-16L478.2,275.4z"/>
	<path d="M525.1,273.2v15.3h-7.7v-38.3h14.1c4.4,0,7.8,1.1,10.2,3.3c2.3,2.1,3.6,5.1,3.6,8.2c0,2.4-0.8,4.8-2.2,6.8
		c-1.7,2.2-4.2,3.8-6.9,4.3l9.8,15.7h-9.2l-9.2-15.2L525.1,273.2z M525.1,256.1v11.2h6.4c1.6,0.1,3.2-0.4,4.5-1.5c2-2.3,2-5.8,0-8.2
		c-1.2-1.1-2.8-1.6-4.5-1.5H525.1z"/>
	<path d="M585.3,250.1v5.9H571v10h12.7v5.9H571v10.6h14.4v6h-22.2v-38.4H585.3z"/>
	<path d="M633.7,283.3c-7.6-7.8-7.6-20.3,0-28.1c3.7-3.7,8.7-5.7,13.9-5.5c3.9-0.1,7.8,1,11.1,3.2c3.2,2.1,5.7,5.3,6.9,8.9h-9.3
		c-1.7-3.3-4.6-5-8.8-5c-3.2-0.1-6.3,1.1-8.5,3.4c-4.4,5.3-4.4,12.9,0,18.2c2.1,2.2,5,3.5,8,3.4c2.7,0.2,5.3-0.7,7.5-2.3
		c1.8-1.6,3-3.9,3.4-6.3h-12.7v-5.9h21v5.9c-2.1,10.5-12.3,17.3-22.8,15.3C639.8,287.8,636.4,286,633.7,283.3L633.7,283.3z"/>
	<path d="M724.4,250.2v38.3h-7.7v-24.2l-10.4,24.2h-5.5l-10.4-24.1v24.1h-7.7v-38.3h8.6l12.3,28.3l12.3-28.4L724.4,250.2z"/>
	<path d="M742.9,250.2h15.5c3.9,0,7,1,9.2,2.9c2.2,1.8,3.4,4.4,3.4,7.2c0,4.3-2.5,7.1-7.5,8.6c4.8,0.6,8.4,4.7,8.3,9.5
		c0.1,2.8-1.2,5.5-3.4,7.3c-2.3,1.8-5.3,2.8-9.2,2.8h-16.4V250.2z M750.7,256.1v9.9h7c1.5,0.1,2.9-0.4,4.1-1.3
		c1-0.9,1.6-2.3,1.5-3.7c0.1-1.4-0.5-2.7-1.5-3.7c-1.2-0.9-2.6-1.4-4.1-1.3H750.7z M750.7,282.6h7.8c1.5,0.1,3-0.4,4.1-1.4
		c1.1-1,1.6-2.4,1.6-3.9c0.1-1.5-0.5-2.9-1.6-3.9c-1.2-1-2.6-1.5-4.2-1.4h-7.7V282.6z"/>
	<path d="M813,250.2h7.7v38.3H813v-16.4h-16.5v16.4h-7.7v-38.3h7.7v16H813V250.2z"/>
	<path d="M197.8,123.7V0.4h40.4v123.3c0,13.8,3.5,24.2,10.5,31.2c7,7.1,17,10.6,30,10.6c13,0,23-3.5,30.1-10.6
		c7.1-7.1,10.6-17.5,10.6-31.2V0.4h40.1v123.3c0,25.2-7.9,44.7-23.8,58.3c-15.9,13.7-35.2,20.5-57.9,20.5
		c-22.7,0-41.8-6.8-57.1-20.4C205.5,168.6,197.8,149.1,197.8,123.7z"/>
	<path d="M719.5,0c-55.9,0-101.3,45.3-101.3,101.3s45.3,101.3,101.3,101.3c55.9,0,101.3-45.3,101.3-101.3
		C820.8,45.3,775.4,0,719.5,0C719.5,0,719.5,0,719.5,0z M719.5,164.4c-34.9,0-63.1-28.3-63.1-63.2s28.3-63.1,63.1-63.1
		c34.9,0,63.2,28.3,63.2,63.1S754.4,164.4,719.5,164.4L719.5,164.4z"/>
	<polygon points="126.5,0.4 126.5,80.3 40.5,80.3 40.5,0.4 0,0.4 0,200.6 40.5,200.6 40.5,120.7 126.5,120.7 126.5,200.6 
		166.9,200.6 166.9,0.4 	"/>
	<path d="M419.6,174c-19.4-19-29.1-43.1-29.1-72.3c0-29.2,9.7-53.3,29.2-72.3c19.5-19,43.4-28.5,71.6-28.5
		c21.5,0,40.5,5.5,57.2,16.4s28.6,26.3,35.7,46h-47.7c-8.8-17.3-23.9-26-45.2-26c-17.9,0-32.4,5.9-43.6,17.7s-16.8,27.4-16.8,46.9
		c0,19.5,5.6,35.1,16.8,46.9s25,17.6,41.3,17.7c16.3,0,29.1-4,38.4-12c9.3-8,15.1-18.8,17.4-32.3h-65.6V91.8h108.2v30.2
		c-3.4,21.5-13.9,40.3-31.6,56.3c-17.7,16.1-40,24.1-66.8,24.2C462.1,202.6,439,193.1,419.6,174z"/>
</g>
</svg>
