<svg width="145" height="37" viewBox="0 0 145 37" fill="none" xmlns="http://www.w3.org/2000/svg">
    <g clip-path="url(#clip0_677_103)">
        <path d="M31.0061 0.987061C32.431 0.992424 33.7959 1.55558 34.803 2.55363C35.8101 3.55168 36.3776 4.9036 36.3817 6.31438V31.6699C36.3763 33.0798 35.8082 34.4304 34.8012 35.4274C33.7943 36.4243 32.4301 36.9868 31.0061 36.9922H5.37562C3.95158 36.9868 2.58741 36.4243 1.58046 35.4274C0.573504 34.4304 0.00540951 33.0798 0 31.6699V12.2568V6.02462C0.0759549 4.66648 0.673265 3.38843 1.6697 2.45197C2.66613 1.51552 3.98636 0.991464 5.36021 0.987061H31.0061Z"
              fill="white"/>
        <path d="M103.287 7.71735H96.8431C96.5613 7.71735 96.2909 7.82821 96.0916 8.02554C95.8923 8.22288 95.7803 8.49052 95.7803 8.7696V28.8639H100.319V21.6761H103.287C107.682 21.6761 111.661 18.9667 111.661 14.3714C111.661 9.7761 107.682 7.71735 103.287 7.71735ZM100.319 19.5157V9.85743H103.287C103.896 9.84937 104.5 9.96058 105.066 10.1847C105.631 10.4087 106.146 10.7413 106.581 11.1631C107.016 11.585 107.363 12.0879 107.601 12.6428C107.839 13.1978 107.964 13.7939 107.969 14.3968C107.969 17.2638 105.515 19.4801 103.287 19.4801H100.319V19.5157ZM119.388 12.9938C115.953 12.9938 114.192 13.8326 114.192 13.8326L114.613 15.0932C115.836 14.6466 117.136 14.4444 118.438 14.4985C121.252 14.4985 121.827 15.8506 121.827 17.6959L121.791 18.5245C120.658 18.2486 119.496 18.112 118.33 18.1178C116.184 18.1178 112.641 19.4293 112.641 23.7095C112.641 27.7761 115.763 29.113 117.981 29.113C119.347 29.136 120.688 28.7478 121.827 27.9998V28.8334H126.36V17.701C126.36 14.1833 122.823 12.9989 119.388 12.9989V12.9938ZM119.578 27.1254C117.611 27.1254 116.194 25.6869 116.194 23.5671C116.194 21.4474 118.084 20.1918 119.788 20.1918C120.497 20.1579 121.2 20.335 121.806 20.7001V26.1494C121.215 26.7557 120.408 27.108 119.557 27.1305L119.578 27.1254ZM136.957 30.7905C135.581 33.8049 133.312 34.2014 132.295 34.3132C131.564 34.3876 130.828 34.4131 130.093 34.3895V31.9241C132.111 31.9241 133.215 32.0817 134.406 29.7382L135.212 27.7049L127.767 13.0294H132.521L137.404 22.7843L141.722 13.0294H144.803C144.803 13.0294 138.313 27.771 136.957 30.7905ZM51.4046 7.71735H44.961C44.6786 7.71734 44.4078 7.82804 44.2077 8.02523C44.0075 8.22242 43.8944 8.49006 43.8931 8.7696V28.8639H48.4318V21.6761H51.4046C55.7944 21.6761 59.7735 18.9667 59.7735 14.3714C59.7735 9.7761 55.7944 7.71735 51.4046 7.71735ZM48.4318 19.5157V9.85743H51.4046C52.0131 9.85005 52.6171 9.96175 53.1819 10.1861C53.7468 10.4105 54.2612 10.7432 54.6958 11.1649C55.1305 11.5867 55.4766 12.0894 55.7145 12.644C55.9524 13.1986 56.0772 13.7943 56.0819 14.3968C56.0819 17.2638 53.6277 19.4801 51.4046 19.4801H48.4318V19.5157ZM67.5006 12.9938C64.0657 12.9938 62.3047 13.8326 62.3047 13.8326L62.7257 15.0932C63.9485 14.6466 65.2486 14.4444 66.5507 14.4985C69.3643 14.4985 69.9394 15.8506 69.9394 17.6959L69.9034 18.5245C68.773 18.2485 67.6124 18.1119 66.4481 18.1178C64.3019 18.1178 60.7541 19.4293 60.7541 23.7095C60.7541 27.7761 63.8758 29.113 66.0938 29.113C67.4599 29.136 68.8009 28.7478 69.9394 27.9998V28.8334H74.473V17.701C74.473 14.1833 70.9354 12.9989 67.5006 12.9989V12.9938ZM67.6957 27.1254C65.7241 27.1254 64.307 25.6869 64.307 23.5671C64.307 21.4474 66.2016 20.1918 67.9011 20.1918C68.6099 20.1573 69.3129 20.3344 69.9188 20.7001V26.1494C69.3294 26.7545 68.5239 27.1067 67.6752 27.1305L67.6957 27.1254ZM85.0702 30.7905C83.6942 33.8049 81.4248 34.2014 80.4082 34.3132C79.6766 34.3876 78.9407 34.4131 78.2056 34.3895V31.9241C80.2234 31.9241 81.3273 32.0817 82.5184 29.7382L83.3296 27.7049L75.8798 13.0294H80.6341L85.522 22.7843L89.8399 13.0294H92.9205C92.9205 13.0294 86.4564 27.771 85.0702 30.7905Z"
              fill="#3F3A39"/>
        <path d="M7.0802 36.9922H5.37562C3.95158 36.9868 2.58741 36.4243 1.58046 35.4274C0.573504 34.4304 0.00540951 33.0798 0 31.6699V12.2568C4.41036 11.7973 8.85548 11.7649 13.2722 12.1602L7.0802 36.9922ZM28.9523 20.2172C29.8046 16.7809 24.2031 13.6089 15.2335 12.3991L11.9783 25.8089C19.495 26.1596 28.0333 23.9179 28.9523 20.2172ZM31.0061 0.997237H5.37562C4.00176 1.00164 2.68153 1.52568 1.6851 2.46213C0.688667 3.39859 0.0913572 4.67664 0.0154023 6.03478C21.4563 5.44004 31.884 12.821 30.2462 20.1867C28.7726 26.795 21.9697 29.3367 10.9155 30.1907L9.26228 37.0023H31.0061C32.4301 36.997 33.7943 36.4345 34.8012 35.4375C35.8082 34.4406 36.3763 33.09 36.3817 31.6801V6.31437C36.3776 4.9036 35.8101 3.55168 34.803 2.55363C33.7959 1.55558 32.431 0.992424 31.0061 0.987061"
              fill="#FF0033"/>
    </g>
    <defs>
        <clipPath id="clip0_677_103">
            <rect width="144.818" height="36" fill="white" transform="translate(0 0.987061)"/>
        </clipPath>
    </defs>
</svg>
